      <svg xmlns="http://www.w3.org/2000/svg" version="1.0" width="273.000000pt" height="261.000000pt"
        viewBox="0 0 273.000000 261.000000" preserveAspectRatio="xMidYMid meet">
        <metadata>
          Created by potrace 1.16, written by Peter Selinger 2001-2019
        </metadata>
        <g transform="translate(0.000000,261.000000) scale(0.100000,-0.100000)" fill="#a80000" stroke="none">
          <path
            d="M1158 1908 c-92 -172 -225 -424 -297 -560 l-131 -247 56 -114 57 -113 -90 -177 -90 -177 124 0 124 0 45 98 c83 179 368 752 374 752 3 0 103 -191 220 -425 l215 -425 123 0 124 0 -92 177 -92 178 58 113 59 112 -21 38 c-12 20 -54 98 -94 172 -40 74 -93 173 -118 220 -292 540 -372 685 -379 687 -5 2 -83 -137 -175 -309z m265 -116 c46 -86 148 -277 226 -424 l142 -267 -19 -38 -20 -37 -42 84 c-50 100 -296 567 -347 658 l-36 64 -89 -174 c-49 -95 -139 -270 -200 -388 -61 -118 -113 -219 -115 -223 -3 -5 -14 5 -24 22 l-19 31 51 103 c46 91 178 345 337 649 31 59 59 105 63 102 4 -2 45 -75 92 -162z" />
          <path
            d="M1177 899 c-81 -166 -147 -305 -147 -310 0 -5 11 -9 25 -9 l25 0 -30 -60 -30 -60 -230 0 c-127 0 -230 1 -230 3 0 2 36 73 80 157 44 85 80 159 80 164 0 13 -62 126 -69 126 -7 0 -294 -543 -299 -566 -3 -12 54 -14 365 -14 202 0 373 4 379 8 6 4 36 60 67 125 l56 117 215 0 c119 0 216 1 216 3 0 1 -12 25 -26 52 -14 28 -84 166 -155 308 -72 141 -134 257 -138 257 -4 0 -73 -135 -154 -301z" />
          <path
            d="M1980 841 c-24 -51 -30 -74 -23 -83 13 -16 153 -283 153 -292 0 -3 -178 -7 -395 -8 l-395 -3 67 -117 67 -118 30 55 31 55 407 0 c225 0 408 3 408 6 0 15 -302 573 -311 574 -3 0 -20 -31 -39 -69z" />
        </g>
      </svg>